<svg height="480pt" viewBox="-80 0 480 480" width="480pt" 
    xmlns="http://www.w3.org/2000/svg">
    <path d="M 104 288 l -70.1 21.6 c -20.1 6.2 -33.9 24.8 -33.9 45.9 v 124.6 h 320 v -124.6 c 0 -21.1 -13.7 -39.7 -33.9 -45.9 l -70.1 -21.6" fill="#b8cbd9"/>
    <path d="M 254.1 309.6 l -70.1 -21.6 h -80 l -70.1 21.6 c -20.1 6.2 -33.9 24.8 -33.9 45.9 v 124.6 h 288 v -124.6 c 0 -21.1 -13.7 -39.7 -33.9 -45.9 z m 0 0" fill="#e8eff4"/>
    <path d="M 32 480 v -112 h 256 v 112" fill="#8892a0"/>
    <path d="M 184 424 c 0 13.3 -10.7 24 -24 24 s -24 -10.7 -24 -24 s 10.7 -24 24 -24 s 24 10.7 24 24 z m 0 0" fill="#ffffff"/>
    <path d="M 288 424 h 32 v 56 h -32 z m 0 0" fill="rgb(177, 130, 86)"/>
    <path d="M 0 424 h 32 v 56 h -32 z m 0 0" fill="#c18e59"/>
    <path d="M 104 288 c 0 26.5 21.5 48 48 48 h 16 c 26.5 0 48 -21.5 48 -48" fill="#c18e59"/>
    <path d="M 72 200 h -16 c -17.7 0 -32 -14.3 -32 -32 s 14.3 -32 32 -32 h 16" fill="rgb(197, 146, 93)"/>
    <path d="M 248 200 h 16 c 17.7 0 32 -14.3 32 -32 s -14.3 -32 -32 -32 h -16" fill="#976947"/>
    <path d="M 264 72 v 128 c 0 57.4 -46.6 104 -104 104 s -104 -46.6 -104 -104 v -128" fill="rgb(190, 144, 97)"/>
    <path d="M 148 303.3 c 51.8 -6 92 -49.9 92 -103.3 v -128 h -184 v 128 c 0 53.4 40.2 97.3 92 103.3 z m 0 0" fill="rgb(228, 169, 108)"/>
    <path d="M 320 72 c 0 -20.2 -15.1 -36.8 -34.6 -39.5 c -6.4 -18.9 -24.3 -32.5 -45.4 -32.5 c -15.6 0 -29.4 7.4 -38.1 18.9 c -10.3 -11.6 -25.2 -18.9 -41.9 -18.9 s -31.6 7.3 -41.9 18.9 c -8.8 -11.5 -22.6 -18.9 -38.1 -18.9 c -21.1 0 -39 13.6 -45.4 32.5 c -19.5 2.7 -34.6 19.2 -34.6 39.5 c 0 9.7 3.6 18.5 9.3 25.4 c -5.8 5.8 -9.3 13.8 -9.3 22.6 c 0 17.7 14.3 32 32 32 s 32 -14.3 32 -32 c 0 -5 -1.3 -9.7 -3.3 -13.9 c 4.6 -2.8 8.6 -6.4 11.7 -10.7 c 2.5 0.4 5 0.7 7.6 0.7 c 12.1 0 23.2 -4.5 31.6 -11.9 c 9.7 16.7 27.7 27.9 48.4 27.9 s 38.7 -11.2 48.4 -27.9 c 8.4 7.4 19.5 11.9 31.6 11.9 c 2.6 0 5.1 -0.3 7.6 -0.7 c 3.1 4.3 7.1 8 11.7 10.7 c -2.1 4.2 -3.3 8.9 -3.3 13.9 c 0 17.7 14.3 32 32 32 s 32 -14.3 32 -32 c 0 -8.8 -3.6 -16.8 -9.3 -22.6 c 5.8 -6.9 9.3 -15.7 9.3 -25.4 z m 0 0" fill="rgb(50, 44, 41)"/>
    <g fill="#857970">
        <path d="M 176 144 h 56 v 16 h -56 z m 0 0"/>
        <path d="M 88 144 h 56 v 16 h -56 z m 0 0"/>
        <path d="M 152 184 h 16 v 32 h -16 z m 0 0"/>
        <path d="M 124 192 c -6.6 0 -12 -5.4 -12 -12 s 5.4 -12 12 -12 s 12 5.4 12 12 s -5.4 12 -12 12 z m 0 0"/>
        <path d="M 196 192 c -6.6 0 -12 -5.4 -12 -12 s 5.4 -12 12 -12 s 12 5.4 12 12 s -5.4 12 -12 12 z m 0 0"/>
        <path d="M 160 280 c -30.9 0 -56 -25.1 -56 -56 h 16 c 0 22.1 17.9 40 40 40 s 40 -17.9 40 -40 h 16 c 0 30.9 -25.1 56 -56 56 z m 0 0"/>
    </g>
</svg>